<svg id="Capa_1" enable-background="new 0 0 512.024 512.024" height="512" viewBox="0 0 512.024 512.024" width="512" xmlns="http://www.w3.org/2000/svg"><path d="m75.051 32.439v479.585l361.922-.086v-479.499z" fill="#f2f2fc"/><path d="m436.973 32.439h-180.976v479.542l180.976-.043z" fill="#dcdcff"/><path d="m151.19 0h209.645v84.879h-209.645z" fill="#61729b"/><path d="m255.997 0h104.838v84.879h-104.838z" fill="#47568c"/><g fill="#00c0f1"><path d="m146.236 237.936h31.44v30h-31.44z"/><path d="m146.236 300.818h31.44v30h-31.44z"/><path d="m146.236 363.7h31.44v30h-31.44z"/><path d="m146.236 426.581h31.44v30h-31.44z"/><path d="m209.118 237.936h156.671v30h-156.671z"/><path d="m209.118 300.818h156.671v30h-156.671z"/><path d="m209.118 363.7h156.671v30h-156.671z"/><path d="m209.118 426.581h156.671v30h-156.671z"/></g><path d="m255.997 237.936h109.792v30h-109.792z" fill="#009ae4"/><path d="m326.688 145.496h-11.281v-21.081h-30v21.081h-58.821v-21.081h-30v21.081h-11.281v30h11.281v21.082h30v-21.082h58.821v21.082h30v-21.082h11.281z" fill="#47568c"/><path d="m315.407 145.496v-21.081h-30v21.081h-29.41v30h29.41v21.082h30v-21.082h11.281v-30z" fill="#2c3b73"/><path d="m255.997 300.818h109.792v30h-109.792z" fill="#009ae4"/><path d="m255.997 363.7h109.792v30h-109.792z" fill="#009ae4"/><path d="m255.997 426.581h109.792v30h-109.792z" fill="#009ae4"/></svg>